<svg xmlns="http://www.w3.org/2000/svg" viewBox="0 0 48 48"><defs><style>.cls-1{fill:#58595b;}.cls-2{fill:#fff;}</style></defs><title>Asset 5</title><g id="Layer_2" data-name="Layer 2"><g id="Icons"><circle class="cls-1" cx="24" cy="24" r="24"/><path class="cls-2" d="M13.15,34h5.42s5.91-.22,5.91-6.2c0,0,.26-4.86-3.48-4.86,0,0,2.84-.22,2.84-3.73S21.51,14,18.56,14H9.12V34h4Zm0-16.52h5.42s1.31,0,1.31,2-.77,2.33-1.65,2.33H13.15Zm0,7.39h5.42s2,0,2,2.69c0,2.29-1.46,2.53-2.23,2.55H13.15Z"/><path class="cls-2" d="M32.36,19c-7.15,0-7.15,7.52-7.15,7.52S24.72,34,32.36,34c0,0,6.37.38,6.37-5.21H35.45s.11,2.11-3,2.11a3.08,3.08,0,0,1-3.28-3.41h9.64S39.89,19,32.36,19Zm-3.2,5.89s.4-3,3.28-3,2.84,3,2.84,3Z"/><rect class="cls-2" x="28.35" y="15.15" width="7.68" height="1.85"/></g></g></svg>