<?xml version="1.0" encoding="utf-8"?>
<!-- Generator: Adobe Illustrator 21.0.0, SVG Export Plug-In . SVG Version: 6.00 Build 0)  -->
<svg version="1.1" id="Layer_1" xmlns="http://www.w3.org/2000/svg" xmlns:xlink="http://www.w3.org/1999/xlink" x="0px" y="0px"
	 viewBox="0 0 48 48" style="enable-background:new 0 0 48 48;" xml:space="preserve">
<style type="text/css">
	.st0{fill:#FFFFFF;}
	.st1{fill:#F19F4D;}
</style>
<title>Asset 5</title>
<g id="Layer_2">
	<g id="Icons">
		<circle class="st0" cx="24" cy="24" r="24"/>
		<path class="st1" d="M13.1,34h5.4c0,0,5.9-0.2,5.9-6.2c0,0,0.3-4.9-3.5-4.9c0,0,2.8-0.2,2.8-3.7S21.5,14,18.6,14H9.1v20H13.1
			L13.1,34z M13.1,17.5h5.4c0,0,1.3,0,1.3,2s-0.8,2.3-1.6,2.3h-5.1C13.1,21.8,13.1,17.5,13.1,17.5z M13.1,24.9h5.4c0,0,2,0,2,2.7
			c0,2.3-1.5,2.5-2.2,2.5h-5.2C13.1,30.1,13.1,24.9,13.1,24.9z"/>
		<path class="st1" d="M32.4,19c-7.1,0-7.1,7.5-7.1,7.5S24.7,34,32.4,34c0,0,6.4,0.4,6.4-5.2h-3.3c0,0,0.1,2.1-3,2.1
			c-1.7,0.1-3.2-1.2-3.3-2.9c0-0.2,0-0.4,0-0.6h9.6C38.8,27.5,39.9,19,32.4,19z M29.2,24.9c0,0,0.4-3,3.3-3s2.8,3,2.8,3H29.2z"/>
		<rect x="28.4" y="15.1" class="st1" width="7.7" height="1.9"/>
	</g>
</g>
</svg>
