<?xml version="1.0" encoding="utf-8"?>
<!-- Generator: Adobe Illustrator 21.0.0, SVG Export Plug-In . SVG Version: 6.00 Build 0)  -->
<svg version="1.1" id="Layer_1" xmlns="http://www.w3.org/2000/svg" xmlns:xlink="http://www.w3.org/1999/xlink" x="0px" y="0px"
	 viewBox="0 0 48 48" style="enable-background:new 0 0 48 48;" xml:space="preserve">
<style type="text/css">
	.st0{fill:#FFFFFF;}
	.st1{fill:#F19F4D;}
</style>
<title>Asset 11</title>
<g id="Layer_2">
	<g id="Icons">
		<circle class="st0" cx="24" cy="24" r="24"/>
		<path class="st1" d="M36.3,14.2h-24c-0.9,0-1.7,0.8-1.7,1.7V33c0,0.9,0.8,1.7,1.7,1.7h24c0.9,0,1.7-0.8,1.7-1.7V15.9
			C38,15,37.2,14.2,36.3,14.2z M35.4,15.9L24.8,26.6c-0.3,0.3-0.7,0.3-0.9,0L13.2,15.9H35.4z M36.3,33h-24V17.6l11.5,11.5
			c0.3,0.3,0.7,0.3,0.9,0l11.5-11.5V33H36.3z"/>
	</g>
</g>
</svg>
