<?xml version="1.0" encoding="utf-8"?>
<!-- Generator: Adobe Illustrator 21.0.0, SVG Export Plug-In . SVG Version: 6.00 Build 0)  -->
<svg version="1.1" id="Layer_1" xmlns="http://www.w3.org/2000/svg" xmlns:xlink="http://www.w3.org/1999/xlink" x="0px" y="0px"
	 viewBox="0 0 48 48" style="enable-background:new 0 0 48 48;" xml:space="preserve">
<style type="text/css">
	.st0{fill:#FFFFFF;}
	.st1{fill:#F19F4D;}
</style>
<title>Asset 6</title>
<g id="Layer_2">
	<g id="Icons">
		<circle class="st0" cx="24" cy="24" r="24"/>
		<path id="path9-5" class="st1" d="M13.4,23.7c0.2,0.4,0.3,0.8,0.5,1.2c1.2,2.2,3.6,3.6,7.6,4c-0.7,0.5-1.2,1.3-1.3,2.2
			c-1,0.5-2.2,0.6-3.3,0.3c-1.6-0.5-2.2-3.6-4.5-3.1c-0.5,0.1-0.4,0.4,0,0.7c0.9,0.5,1.5,1.3,1.9,2.3c0.5,1.7,2.1,2.7,3.9,2.6
			c0.6,0,1.2,0,1.8-0.1c0,0,0,2.4,0,3.3s-1.4,1.4-1.4,1.9c0,0.2,0.5,0.2,0.9,0.2c0.8,0,2.4-0.6,2.4-1.8c0-0.9,0-3.9,0-4.4
			c-0.1-0.6,0.2-1.1,0.6-1.5c0,0,0.1,6.1-0.1,6.9s-0.7,0.8-0.7,1.3c0,0.6,1.9,0.2,2.6-1.2c0.5-1.1,0.3-7.1,0.3-7.1h0.5
			c0,0,0,2.8,0,4s-0.1,3,0.7,3.7c0.5,0.5,2.2,1.4,2.2,0.6c0-0.5-0.9-0.9-0.9-2.2v-6c0.7,0,0.6,2,0.6,2v3.6c0,0.9,0.6,1.7,1.4,1.8
			c0.6,0.2,1.8,0.2,1.8-0.1S29.5,38,29.4,37c0-0.6,0-1,0-3.7s-0.4-3.7-1.6-4.5c3.9-0.4,6.3-1.4,7.5-4c0.2-0.4,0.4-0.8,0.4-1.2
			c0.3-1.1,0.4-2.3,0.4-3.5c0.1-2.1-0.7-4.1-2.1-5.6c0.5-2.8-0.1-4.1-0.4-4.5c-1-0.4-3.5,0.9-4.9,1.8c-2.2-0.6-6.9-0.6-8.7,0.2
			c-3.2-2.3-5-2-5-2c-0.7,1.6-0.8,3.4-0.2,5c-1.3,1.3-1.9,3.1-1.9,4.9C12.8,21.2,13,22.5,13.4,23.7L13.4,23.7z"/>
	</g>
</g>
</svg>
