<?xml version="1.0" encoding="utf-8"?>
<!-- Generator: Adobe Illustrator 21.0.0, SVG Export Plug-In . SVG Version: 6.00 Build 0)  -->
<svg version="1.1" id="Layer_1" xmlns="http://www.w3.org/2000/svg" xmlns:xlink="http://www.w3.org/1999/xlink" x="0px" y="0px"
	 viewBox="0 0 48 48" style="enable-background:new 0 0 48 48;" xml:space="preserve">
<style type="text/css">
	.st0{fill:#FFFFFF;}
	.st1{fill:#F19F4D;}
</style>
<title>Asset 7</title>
<g id="Layer_2">
	<g id="Icons">
		<circle class="st0" cx="24" cy="24" r="24"/>
		<path class="st1" d="M33.2,9H14.8C11.6,9,9,11.6,9,14.8v18.4c0,3.2,2.6,5.8,5.8,5.8h18.4c3.2,0,5.8-2.6,5.8-5.8V14.8
			C39,11.6,36.4,9,33.2,9z M34.9,12.5h0.7v5.1h-5.1v-5.1H34.9z M19.7,20.9c1.7-2.4,5-2.9,7.4-1.2s2.9,5,1.2,7.4s-5,2.9-7.4,1.2
			c-1.4-1-2.2-2.6-2.2-4.3C18.7,22.9,19.1,21.8,19.7,20.9z M36.1,33.2c0,1.6-1.3,2.9-2.9,2.9l0,0H14.8c-1.6,0-2.9-1.3-2.9-2.9V20.9
			h4.5c-1.7,4.2,0.3,9,4.5,10.7c4.2,1.7,9-0.3,10.7-4.5c0.8-2,0.8-4.2,0-6.2h4.5V33.2z"/>
	</g>
</g>
</svg>
