<?xml version="1.0" encoding="utf-8"?>
<!-- Generator: Adobe Illustrator 21.0.0, SVG Export Plug-In . SVG Version: 6.00 Build 0)  -->
<svg version="1.1" id="Layer_1" xmlns="http://www.w3.org/2000/svg" xmlns:xlink="http://www.w3.org/1999/xlink" x="0px" y="0px"
	 viewBox="0 0 48 48" style="enable-background:new 0 0 48 48;" xml:space="preserve">
<style type="text/css">
	.st0{fill:#FFFFFF;}
	.st1{fill:#F19F4D;}
</style>
<title>Asset 8</title>
<g id="Layer_2">
	<g id="Icons">
		<circle class="st0" cx="24" cy="24" r="24"/>
		<path class="st1" d="M38.2,12.4c-1.2,0.7-2.5,1.2-3.9,1.5c-1.2-1.2-2.8-1.9-4.5-1.9c-3.3-0.1-6.1,2.6-6.2,6c0,0.5,0,1,0.2,1.5
			c-4.9-0.2-9.5-2.5-12.7-6.3c-0.5,0.9-0.8,1.9-0.8,3c0,2,1,3.9,2.7,5c-1,0-1.9-0.3-2.8-0.8v0.1c0,2.9,2.1,5.4,4.9,5.9
			c-0.9,0.2-1.9,0.3-2.8,0.1c0.8,2.5,3.1,4.2,5.7,4.2c-2.2,1.7-4.9,2.6-7.6,2.6c-0.5,0-1,0-1.5,0c2.8,1.8,6.1,2.7,9.4,2.7
			c9.5,0.1,17.4-7.5,17.5-17c0-0.1,0-0.2,0-0.3c0-0.3,0-0.5,0-0.8c1.2-0.9,2.2-1.9,3-3.1c-1.1,0.5-2.3,0.8-3.5,1
			C36.8,15.1,37.7,13.9,38.2,12.4z"/>
	</g>
</g>
</svg>
