<svg xmlns="http://www.w3.org/2000/svg" viewBox="0 0 216.43 192.67"><defs><style>.cls-1{fill:#ecf0f1;}</style></defs><title>Asset 1</title><g id="Layer_2" data-name="Layer 2"><g id="Layer_1-2" data-name="Layer 1"><path class="cls-1" d="M216.37,100c-.75-5.26-3.76-8.62-9-10-1.43-.38-2.87-.72-4.46-1.12a52.69,52.69,0,0,0,6.52-12.93,5.29,5.29,0,0,0,.19-4.12c-1.56-3.56-4.12-5.93-8.08-6.55-1.39-.22-2.78-.48-4.17-.67a2.17,2.17,0,0,1-2.05-2.13,15.62,15.62,0,0,0-1.89-5.5,4.56,4.56,0,0,0-2.86-2.7c-.92-.22-.89-1-.88-1.68,0-2,.5-4,.35-6a15.07,15.07,0,0,0-3.59-9.23,8,8,0,0,1-2.37-4.92c-.34-3.73-1.79-7.1-4.89-9.19a32,32,0,0,0-9.67-4.54,10.44,10.44,0,0,1-5.67-3.56,32.43,32.43,0,0,0-5-5.11c-5.11-4-10.7-6.37-17.36-5.08a1.55,1.55,0,0,1-1.62-.48c-1.05-1.28-2.52-1.57-4.05-1.79a20.13,20.13,0,0,1-6.3-1.52c-3.2-1.61-6.36-1.38-9.59-.2-2.34.86-4.7,1.67-7,2.51a5.11,5.11,0,0,1-3.51.19,7.5,7.5,0,0,0-7.12,1,3.31,3.31,0,0,1-3.81.16,29.45,29.45,0,0,0-3.87-1.68c-2.09-.8-3-.47-4.19,1.49-1,1.62-1.86,3.33-3,4.85-1.86,2.52-4.14,4.35-7.75,2.8a19,19,0,0,0-8.93-1.4c-.38,0-1.11-.2-1.07.38.08,1.2-.85,1.23-1.52,1.58s-1.37.78-1.44,1.46c-.15,1.52-1.21,1.66-2.28,1.67C63,15.95,62.34,16.7,62,18a21.84,21.84,0,0,1-1.83,5.22C59.82,22,59.61,21,59.3,20a4.68,4.68,0,0,0-2.59-3.17c-.38-.17-1-.47-1.15,0-.48,1.73-1.44.73-2.21.44-1-.37-1.36-.11-1.15.9a27,27,0,0,0,.8,3.48c1.16,3.38.47,6-2.1,8.7-2.37,2.46-4.87,5.36-2.74,9.35a.44.44,0,0,1,0,.16,2,2,0,0,1-.53,1.94c-.65.51-1.25.08-1.82-.19a28.82,28.82,0,0,1-4.43-2.73c-1.64-1.2-2.28-.94-2.58,1-.34,2.25-.61,4.52-.89,6.78a3,3,0,0,1-1.64,2.47c-1.5.76-3,1.51-4.56,2.15-1.77.74-2.72.14-2.9-1.74A7.31,7.31,0,0,1,28.91,48,27.79,27.79,0,0,1,33,37.43a6.11,6.11,0,0,1,4.74-2.8c.45-.06,1,.07,1.38-.25a4.16,4.16,0,0,0-6.5-.11c-3,3.42-5.91,6.95-9.12,10.19a4.42,4.42,0,0,0-1,4.82,8.08,8.08,0,0,1,.69,3,9,9,0,0,0,4.2,8.42c2.5,1.76,2.51,2.55,1.54,5.44-.48,1.43-1.13,2.46-2.89,2.16a2.73,2.73,0,0,1-2.52-2.88c-.1-1.33-.17-2.67-.25-4a1,1,0,0,0-.95,1c-.26,1.93-.91,3.86-.62,5.81a9.22,9.22,0,0,1-2.89,8.56c-.51.49-.93,1.07-1.41,1.58a3.38,3.38,0,0,0-.65,4.31,5.3,5.3,0,0,1,.44,4c-1.55,6-2.78,12.16-5.28,17.91a9.1,9.1,0,0,0-.69,5.26,26,26,0,0,1-.54,11.13,7.13,7.13,0,0,0,1.25,6.47,4,4,0,0,1,.92,2c.42,3.68-2.91,8.93-6.44,10.09-2.25.74-3.7-.14-4.09-2.53-.2-1.2-.3-2.41-.45-3.7A1.39,1.39,0,0,0,1,134.4c-.31,1.6-.73,3.18-.94,4.79a6.35,6.35,0,0,0,7.42,7.26c.75-.1,1.5-.26,2.24-.42,2-.46,2-.47,1.42,1.55a1.63,1.63,0,0,1-.11.3c-.13.24-.34.51-.06.72s.6,0,.8-.27l1.73-2.42a3.73,3.73,0,0,1,.39,4.43,5.2,5.2,0,0,0,0,5.13q.87,1.66,1.68,3.34a12.55,12.55,0,0,0,5.78,6c1.79.9,3.56,1.86,5.26,2.92,1.53,1,1.47,1.69-.07,2.58a15.13,15.13,0,0,1-1.76.84c-3.47,1.44-3.77,2.28-1.93,5.63a9.76,9.76,0,0,1,1.35,4.94,7.15,7.15,0,0,0,2.95,5.9,39.48,39.48,0,0,0,7.11,4.55c.5.24,1,.85,1.62.36a1.74,1.74,0,0,0,.38-2c-.39-1.47-.75-2.94-1.18-4.4a15.75,15.75,0,0,1-.37-6.45c.12-1,.46-1.49,1.58-1a8.59,8.59,0,0,0,2.36.57c1.43.17,1.84-.38,1.24-1.68a9.77,9.77,0,0,1-.87-4.91c.14-1.95.37-3.89.59-5.83.26-2.29.54-4.57.85-7.14.61.68,1,1.11,1.39,1.56a22.22,22.22,0,0,0,13.67,7.89,58,58,0,0,0,27.79-2.38,18.59,18.59,0,0,0,11.41-9.84c3.58-7.8,6.61-15.82,6.55-24.62,0-.84.29-1.12,1.1-1.21A62.62,62.62,0,0,1,116,131c.86.09,1.07.4,1.05,1.21a30.67,30.67,0,0,0,.15,4.06c.73,6.31,2.95,12.21,5.2,18.08,2.68,7,7.85,11.29,15,13.18a64.12,64.12,0,0,0,21.78,2c9.14-.77,16-4.94,20.34-13.14.27-.5.35-1.14,1-1.48a2.3,2.3,0,0,1,0,.51c-1.87,10.26.57,19,8.93,25.73.8.64.31,1-.1,1.38-1,1-2.34,1.48-3.55,2.43a9.85,9.85,0,0,0,5.63-1.11c2.13-1.27,2.23-3,.26-4.52-.51-.4-1.08-.72-1.6-1.12a3.65,3.65,0,0,1-1.46-3.43,1.38,1.38,0,0,1,1.58-1.45,23.75,23.75,0,0,1,5.49.57c1.25.34,2.13.43,2.14-1.28a2,2,0,0,1,1.29-1.75,10,10,0,0,1,2.72-1.06,5.13,5.13,0,0,0,4-3.17,6.17,6.17,0,0,1,2.49-2.94c.49-.29,1-.59.87-1.21s-.81-.82-1.46-.76a1.84,1.84,0,0,1-2.12-1.39c-.53-2.19-2-2.85-4.05-3-1.59-.13-1.92-.9-1.17-2.36a19.57,19.57,0,0,1,3.3-5c5.56-5.62,6.73-12.55,6-20a20.24,20.24,0,0,0-1.23-6c-.93-2.17-1.16-2.47.91-3.53a9.82,9.82,0,0,0,5.79-9.66,2.87,2.87,0,0,1,.07-.32c.45-3.74-.56-6.88-3.79-9.06-2.66-1.79-3.81-4.52-5-7.56,2.65.4,4.18,2,5.64,3.66.93,1.06,1.78,2.19,2.68,3.28a.92.92,0,0,0,1.14.37C216.58,100.88,216.42,100.38,216.37,100Zm-119,37.55a81.35,81.35,0,0,1-4.57,15.89,18.94,18.94,0,0,1-13.67,12.07,52.07,52.07,0,0,1-21.59,1.4,20,20,0,0,1-16-12.29,41.44,41.44,0,0,1-3.4-14.32,14.75,14.75,0,0,1,3.82-10.75c1.84-2.16,4.43-2.83,7.06-3.32a124.52,124.52,0,0,1,23.73-2,48.56,48.56,0,0,1,15.33,2,20.88,20.88,0,0,1,5.57,2.61A8.25,8.25,0,0,1,97.39,137.53Zm19-11.73a61.11,61.11,0,0,0-16.71.3,5.08,5.08,0,0,1-3.7-.67c-4.25-2.63-9.07-3.59-13.94-4A122.94,122.94,0,0,0,43.42,124c-1.79.41-3.54,1-5.31,1.52,0,0-.09,0-.43-.19.61-1,1.17-1.87,1.76-2.77,3.32-5.08,4-10.79,4-16.67a3.36,3.36,0,0,0-.33-1.24c-2.14-5.15-2-10.46-1-15.79A5.13,5.13,0,0,1,45,85.14c8.63-4.78,18-7.68,27.1-11.38,2.21-.9,4.46-1.69,6.67-2.58a15.15,15.15,0,0,1,8.77-1,13,13,0,0,0,7.19-.69,11.33,11.33,0,0,1,9.64.34c4.36,2.35,9.08,2.76,13.83,3.21a194,194,0,0,0,29.29.18c5-.29,7.52,1.38,9.35,6,2,4.94,4,9.82,5.94,14.78a18.55,18.55,0,0,0,9.68,10.27c2.24,1.08,4.57,2,6.86,3,.49.21,1.07.29.91,1.08-1,4.9-.57,9.83-.31,14.77.13,2.41,0,2.56-2.31,1.72-6.89-2.45-14.08-3-21.28-3.47-6.61-.4-13.23-.83-19.84-.09-4.39.49-8.75,1.27-12.57,3.57C121.45,126.35,119,126.11,116.42,125.8Zm58.8,31.95c-3.85,5.87-9.47,8.75-16.3,9.48s-13.64-.29-20.28-2a17.54,17.54,0,0,1-12.46-10.74,75.58,75.58,0,0,1-5-16.78,8.51,8.51,0,0,1,3.78-9c3.33-2.36,7.19-3.22,11.12-3.83,9-1.4,18-.71,26.93.47,1.88.25,3.76.54,5.64.78,6.45.82,9.8,3.81,11.31,10.12a15.86,15.86,0,0,1,.43,3.88C179.92,146.38,178.72,152.41,175.22,157.74Z"/></g></g></svg>